<svg xmlns="http://www.w3.org/2000/svg" width="390" height="392" viewBox="0 0 390 392" fill="none">
<path d="M272.774 300.911C243.05 271.187 223.211 242.833 228.463 237.582C233.715 232.33 262.068 252.169 291.792 281.893C321.515 311.617 341.354 339.97 336.103 345.222C330.851 350.473 302.498 330.635 272.774 300.911Z" fill="#5283FC" fill-opacity="0.7"/>
<ellipse cx="313.888" cy="219.99" rx="26.8951" ry="76.1127" transform="rotate(-90 313.888 219.99)" fill="#5283FC" fill-opacity="0.8"/>
<ellipse cx="40.3426" cy="76.1128" rx="40.3426" ry="76.1128" transform="matrix(-0.499999 -0.866026 0.866025 -0.500001 251.764 213.768)" fill="#5283FC" fill-opacity="0.9"/>
<ellipse cx="200.673" cy="76.1135" rx="53.7899" ry="76.113" transform="rotate(-180 200.673 76.1135)" fill="#5283FC"/>
<path d="M117.226 90.4137C146.95 120.138 166.789 148.491 161.537 153.743C156.285 158.994 127.932 139.155 98.2084 109.431C68.4846 79.7074 48.6458 51.3541 53.8974 46.1025C59.149 40.8509 87.5022 60.6897 117.226 90.4137Z" fill="#5283FC" fill-opacity="0.3"/>
<ellipse cx="76.1119" cy="171.335" rx="26.8951" ry="76.1127" transform="rotate(90 76.1119 171.335)" fill="#5283FC" fill-opacity="0.4"/>
<ellipse cx="40.3426" cy="76.1128" rx="40.3426" ry="76.1128" transform="matrix(0.499999 0.866026 -0.866025 0.500001 138.236 177.557)" fill="#5283FC" fill-opacity="0.5"/>
<ellipse cx="189.329" cy="315.211" rx="53.7899" ry="76.113" fill="#5283FC" fill-opacity="0.6"/>
</svg>